<?xml version="1.0" encoding="UTF-8" standalone="no"?>
<!-- Created with Inkscape (http://www.inkscape.org/) -->

<svg
   xmlns:dc="http://purl.org/dc/elements/1.1/"
   xmlns:cc="http://creativecommons.org/ns#"
   xmlns:rdf="http://www.w3.org/1999/02/22-rdf-syntax-ns#"
   xmlns:svg="http://www.w3.org/2000/svg"
   xmlns="http://www.w3.org/2000/svg"
   xmlns:sodipodi="http://sodipodi.sourceforge.net/DTD/sodipodi-0.dtd"
   xmlns:inkscape="http://www.inkscape.org/namespaces/inkscape"
   version="1.0"
   width="243.91599"
   height="126"
   viewBox="0 0 243.916 126"
   id="Layer_1"
   xml:space="preserve"
   sodipodi:version="0.32"
   inkscape:version="0.91 r13725"
   sodipodi:docname="steam.svg"
   inkscape:output_extension="org.inkscape.output.svg.inkscape"><metadata
     id="metadata2451"><rdf:RDF><cc:Work
         rdf:about=""><dc:format>image/svg+xml</dc:format><dc:type
           rdf:resource="http://purl.org/dc/dcmitype/StillImage" /><dc:title /></cc:Work></rdf:RDF></metadata><sodipodi:namedview
     inkscape:window-height="768"
     inkscape:window-width="1366"
     inkscape:pageshadow="2"
     inkscape:pageopacity="0.0"
     guidetolerance="10.0"
     gridtolerance="10.0"
     objecttolerance="10.0"
     borderopacity="1.0"
     bordercolor="#666666"
     pagecolor="#ffffff"
     id="base"
     showgrid="false"
     inkscape:zoom="1.2337951"
     inkscape:cx="94.01885"
     inkscape:cy="63"
     inkscape:window-x="-8"
     inkscape:window-y="-8"
     inkscape:current-layer="Layer_1"
     inkscape:window-maximized="0" /><defs
     id="defs271"><inkscape:perspective
       sodipodi:type="inkscape:persp3d"
       inkscape:vp_x="0 : 63 : 1"
       inkscape:vp_y="0 : 1000 : 0"
       inkscape:vp_z="440.91601 : 63 : 1"
       inkscape:persp3d-origin="220.458 : 42 : 1"
       id="perspective2453" /></defs><rect
     width="440.91599"
     height="126"
     x="0"
     y="0"
     id="Background"
     style="fill:#ffffff;fill-opacity:0" /><path
     d="m 218.67501,42.249999 c 0,8.97 -7.28,16.250001 -16.25001,16.250001 -8.96999,0 -16.25,-7.280001 -16.25,-16.250001 0,-8.970001 7.28001,-16.250001 16.25,-16.250001 8.97001,0 16.25001,7.28 16.25001,16.250001 z M 202.34375,11.999998 c -16.66072,0 -30.19243,13.43644 -30.34375,30.0625 l -18.90625,27.09375 c -0.77022,-0.0797 -1.55305,-0.125 -2.34375,-0.125 -4.22405,-6e-6 -8.17152,1.161163 -11.5625,3.1875 l -85.625,-34.4375 c -2.237816,-10.158813 -11.31628,-17.8125 -22.125,-17.8125 -12.479368,-3e-6 -22.65625,10.208128 -22.65625,22.6875 -1.2e-6,12.479366 10.176878,22.65625 22.65625,22.65625 4.223861,-6e-6 8.171517,-1.161101 11.5625,-3.1875 l 85.625,34.375 c 2.2152,10.182552 11.29462,17.843752 22.125,17.843752 11.73131,0 21.41029,-8.99255 22.53125,-20.437502 l 29.0625,-21.25 c 16.75121,-2e-6 30.34376,-13.566124 30.34375,-30.3125 1e-5,-16.755956 -13.59133,-30.34375 -30.34375,-30.34375 z m 0,10 c 11.22382,0 20.34375,9.119658 20.34375,20.34375 -1e-5,11.22409 -9.11993,20.3125 -20.34375,20.3125 C 191.11994,62.656246 182,53.56784 182,42.343748 c -1e-5,-11.224094 9.11993,-20.34375 20.34375,-20.34375 z M 31.4375,25.968748 c 6.397402,-3e-6 11.926337,3.574206 14.71875,8.84375 l -8.28125,-3.3125 0,0.03125 c -6.672004,-2.396 -14.084,0.865 -16.75,7.5 -2.666002,6.634994 0.401,14.14525 6.875,17.03125 l 0,0.03125 7.03125,2.8125 c -1.155873,0.251763 -2.359837,0.40625 -3.59375,0.40625 -9.232991,2e-6 -16.65625,-7.423254 -16.65625,-16.65625 0,-9.232998 7.423254,-16.6875 16.65625,-16.6875 z m 119.3125,49.0625 c 9.23351,-8e-6 16.65625,7.422702 16.65625,16.65625 -4e-5,9.233552 -7.4227,16.656252 -16.65625,16.656252 -6.42264,0 -11.96824,-3.581 -14.75,-8.875002 2.7391,1.105312 5.48292,2.199332 8.21875,3.312502 6.78897,2.728 14.521,-0.55275 17.25,-7.343752 2.72896,-6.789005 -0.585,-14.49075 -7.375,-17.21875 l -6.9375,-2.78125 c 1.15588,-0.251754 2.35976,-0.40625 3.59375,-0.40625 z"
     id="Gears"
     style="fill:#ffffff;fill-opacity:1;fill-rule:nonzero;stroke:none;stroke-width:2;stroke-linecap:round;stroke-linejoin:miter;stroke-miterlimit:4;stroke-opacity:1"
     inkscape:connector-curvature="0" /></svg>