<?xml version="1.0" encoding="UTF-8" standalone="no"?>
<!-- Created with Inkscape (http://www.inkscape.org/) -->

<svg
   xmlns:dc="http://purl.org/dc/elements/1.1/"
   xmlns:cc="http://creativecommons.org/ns#"
   xmlns:rdf="http://www.w3.org/1999/02/22-rdf-syntax-ns#"
   xmlns:svg="http://www.w3.org/2000/svg"
   xmlns="http://www.w3.org/2000/svg"
   xmlns:sodipodi="http://sodipodi.sourceforge.net/DTD/sodipodi-0.dtd"
   xmlns:inkscape="http://www.inkscape.org/namespaces/inkscape"
   version="1.0"
   width="125.91599"
   height="126"
   viewBox="0 0 125.91601 126"
   id="Layer_1"
   xml:space="preserve"
   sodipodi:version="0.32"
   inkscape:version="0.91 r13725"
   sodipodi:docname="steam_link.svg"
   inkscape:output_extension="org.inkscape.output.svg.inkscape"><metadata
     id="metadata2451"><rdf:RDF><cc:Work
         rdf:about=""><dc:format>image/svg+xml</dc:format><dc:type
           rdf:resource="http://purl.org/dc/dcmitype/StillImage" /><dc:title /></cc:Work></rdf:RDF></metadata><sodipodi:namedview
     inkscape:window-height="738"
     inkscape:window-width="1346"
     inkscape:pageshadow="2"
     inkscape:pageopacity="0.0"
     guidetolerance="10.0"
     gridtolerance="10.0"
     objecttolerance="10.0"
     borderopacity="1.0"
     bordercolor="#666666"
     pagecolor="#ffffff"
     id="base"
     showgrid="false"
     inkscape:zoom="1.2337951"
     inkscape:cx="94.01885"
     inkscape:cy="63"
     inkscape:window-x="49"
     inkscape:window-y="-7"
     inkscape:current-layer="Layer_1"
     inkscape:window-maximized="0" /><defs
     id="defs271"><inkscape:perspective
       sodipodi:type="inkscape:persp3d"
       inkscape:vp_x="0 : 63 : 1"
       inkscape:vp_y="0 : 1000 : 0"
       inkscape:vp_z="440.91606 : 63 : 1"
       inkscape:persp3d-origin="220.45803 : 42 : 1"
       id="perspective2453" /></defs><rect
     style="fill:#000000"
     id="rect3336"
     width="124.81813"
     height="54.303993"
     x="0.81050718"
     y="40.086216"
     ry="8.5103254" /><rect
     width="195.18112"
     height="55.776661"
     x="9.4214392"
     y="39.274555"
     id="Background"
     style="fill:#ffffff;fill-opacity:0" /><path
     d="m 106.22274,57.977444 c 0,3.970769 -3.22266,7.193424 -7.193435,7.193424 -3.970768,0 -7.193422,-3.222655 -7.193422,-7.193424 0,-3.97077 3.222654,-7.193416 7.193422,-7.193416 3.970775,0 7.193435,3.222646 7.193435,7.193416 z M 98.993335,44.586618 c -7.375234,0 -13.365336,5.947934 -13.432327,13.307827 l -8.369263,11.993641 c -0.340955,-0.03531 -0.687492,-0.05533 -1.037512,-0.05533 -1.869869,-8e-6 -3.617303,0.514014 -5.118394,1.411014 L 33.132054,55.999254 c -0.990618,-4.497019 -5.009399,-7.885093 -9.794116,-7.885093 -5.524266,-2e-6 -10.029286,4.518855 -10.029286,10.043117 -1e-6,5.52427 4.505018,10.029288 10.029286,10.029288 1.869784,0 3.617301,-0.51399 5.118394,-1.411014 l 37.903784,15.216853 c 0.980607,4.50752 4.999811,7.89892 9.794117,7.89892 5.19312,0 9.47773,-3.98075 9.973951,-9.04711 l 12.865151,-9.406776 c 7.415295,0 13.432335,-6.005341 13.432335,-13.418492 0,-7.417395 -6.0165,-13.432329 -13.432335,-13.432329 z m 0,4.42672 c 4.968475,0 9.005615,4.037016 9.005615,9.005609 -10e-6,4.968585 -4.03714,8.991772 -9.005615,8.991772 -4.968463,0 -9.005607,-4.023187 -9.005607,-8.991772 0,-4.968593 4.037136,-9.005609 9.005607,-9.005609 z m -75.655397,1.756853 c 2.83195,0 5.279455,1.5822 6.515577,3.914885 l -3.665877,-1.466354 0,0.01385 c -2.953508,-1.060635 -6.234591,0.382914 -7.414754,3.320042 -1.180165,2.937128 0.177511,6.261703 3.043369,7.539255 l 0,0.01385 3.112537,1.245017 c -0.511673,0.111449 -1.044634,0.179834 -1.590852,0.179834 -4.087187,0 -7.373254,-3.286067 -7.373254,-7.373258 0,-4.087184 3.286066,-7.387087 7.373254,-7.387087 z m 52.816295,21.718594 c 4.087419,-8e-6 7.373253,3.285818 7.373253,7.37325 -1.6e-5,4.08744 -3.285818,7.37326 -7.373253,7.37326 -2.843123,0 -5.298004,-1.58521 -6.529411,-3.92872 1.212523,0.4893 2.427135,0.97359 3.63821,1.46636 3.005286,1.2076 6.428035,-0.24469 7.636089,-3.25088 1.208038,-3.0053 -0.258965,-6.414643 -3.264704,-7.622256 l -3.071037,-1.23118 c 0.511676,-0.111442 1.0446,-0.179834 1.590853,-0.179834 z"
     id="Gears"
     style="fill:#ffffff;fill-opacity:1;fill-rule:nonzero;stroke:none;stroke-width:2;stroke-linecap:round;stroke-linejoin:miter;stroke-miterlimit:4;stroke-opacity:1"
     inkscape:connector-curvature="0" /></svg>